<svg width="170" height="34" viewBox="0 0 170 34" fill="none" xmlns="http://www.w3.org/2000/svg">
<path d="M26.9862 0C27.5091 3.78293 26.0303 8.36565 22.888 11.8026C19.7457 15.2395 15.5559 16.7378 12.0973 16.166C12.0973 12.3169 13.0853 7.95464 16.2276 4.5178C19.3699 1.08088 23.4671 0 26.9862 0Z" fill="#E6FFCF"/>
<path d="M26.9862 33.0635C27.5091 29.2806 26.0303 24.6687 22.888 21.2317C19.7457 17.7948 15.5559 16.2966 12.0973 16.8684C12.0973 20.7174 13.0853 25.0797 16.2276 28.5166C19.3699 31.9535 23.4671 33.0635 26.9862 33.0635Z" fill="#E6FFCF"/>
<rect width="1.77208" height="33.0349" transform="matrix(-1 0 0 1 1.77209 0)" fill="#E6FFCF"/>
<rect width="2.8721" height="33.0349" transform="matrix(-1 0 0 1 5.58334 0)" fill="#E6FFCF"/>
<rect width="4.6528" height="33.0349" transform="matrix(-1 0 0 1 11.1667 0)" fill="#E6FFCF"/>
<path d="M40.1532 18.7282C41.8103 18.6996 43.0246 18.3282 43.7961 17.6139C44.5675 16.8996 44.9532 15.9996 44.9532 14.9139C44.9532 13.8282 44.6247 12.9139 43.9675 12.171C43.3104 11.4282 42.4246 11.0567 41.3103 11.0567C40.3675 11.0567 39.596 11.371 38.996 11.9996C38.396 12.6282 38.096 13.4996 38.096 14.6139C38.096 15.5853 37.8389 16.3282 37.3246 16.8425C36.8103 17.3282 36.1674 17.5711 35.396 17.5711C34.9674 17.5711 34.5103 17.4854 34.0246 17.3139C33.5674 17.1425 33.1388 16.9139 32.7388 16.6282C32.3674 16.3139 32.0531 15.9568 31.796 15.5568C31.5674 15.1282 31.4531 14.6853 31.4531 14.2282C31.4531 13.5139 31.6674 12.8996 32.096 12.3853C32.5245 11.8424 33.096 11.3996 33.8103 11.0567C34.5246 10.6853 35.3246 10.4139 36.2103 10.2424C37.096 10.0424 37.9817 9.94242 38.8675 9.94242C40.2675 9.94242 41.5818 10.1139 42.8104 10.4567C44.0675 10.771 45.1675 11.2567 46.1104 11.9139C47.0533 12.5424 47.7961 13.3282 48.339 14.271C48.9104 15.1853 49.1961 16.2425 49.1961 17.4425V29.314C49.2247 29.6855 49.2961 30.014 49.4104 30.2998C49.4961 30.5569 49.639 30.7998 49.839 31.0283C50.0676 31.2283 50.3819 31.3283 50.7819 31.3283H51.2104C51.4104 31.3283 51.5247 31.4141 51.5533 31.5855C51.5533 31.8141 51.3533 31.9998 50.9533 32.1426C50.5533 32.2855 50.0961 32.3998 49.5818 32.4855C49.0961 32.5712 48.6104 32.6284 48.1247 32.6569C47.639 32.6855 47.3104 32.6998 47.139 32.6998C46.1675 32.6712 45.2532 32.5284 44.3961 32.2712C43.5675 32.0141 42.9961 31.5426 42.6818 30.8569C42.0818 31.4569 41.3532 31.9283 40.496 32.2712C39.6389 32.6426 38.5246 32.8284 37.1532 32.8284C36.1531 32.8284 35.1674 32.6569 34.196 32.3141C33.2245 31.9998 32.3531 31.5283 31.5817 30.8998C30.8102 30.2426 30.1817 29.4569 29.6959 28.5426C29.2388 27.6283 29.0102 26.5712 29.0102 25.3711C29.0102 24.0283 29.2817 22.914 29.8245 22.0283C30.3959 21.1425 31.0674 20.4425 31.8388 19.9282C32.6388 19.4139 33.4531 19.0568 34.2817 18.8568C35.1389 18.6568 35.8389 18.5568 36.3817 18.5568C37.0389 18.6139 37.696 18.6568 38.3532 18.6854C39.0389 18.7139 39.6389 18.7282 40.1532 18.7282ZM39.0389 31.6712C39.9532 31.6712 40.7103 31.0569 41.3103 29.8283C41.9389 28.5712 42.2532 26.714 42.2532 24.2568V20.3568C42.2532 19.7568 41.9246 19.4568 41.2675 19.4568C41.0103 19.4568 40.7103 19.4568 40.3675 19.4568C40.0532 19.4568 39.7103 19.4711 39.3389 19.4997C38.9675 19.5282 38.596 19.6282 38.2246 19.7997C37.8532 19.9425 37.5246 20.2282 37.2389 20.6568C36.9532 21.0854 36.7246 21.6568 36.5532 22.3711C36.3817 23.0854 36.296 24.014 36.296 25.1569C36.296 27.414 36.5674 29.0712 37.1103 30.1283C37.6817 31.1569 38.3246 31.6712 39.0389 31.6712Z" fill="#E6FFCF"/>
<path d="M52.6656 5.27095C52.6656 4.95666 52.5942 4.7138 52.4513 4.54237C52.3084 4.37094 52.137 4.24237 51.937 4.15665C51.7656 4.07094 51.5656 4.01379 51.337 3.98522C51.137 3.95665 50.9513 3.94236 50.7798 3.94236C50.5798 3.99951 50.4798 3.89951 50.4798 3.64236C50.4227 3.47093 50.5084 3.35664 50.737 3.2995C51.3084 3.21378 52.0227 3.05664 52.8799 2.82807C53.7656 2.59949 54.6656 2.34235 55.5799 2.05663C56.5228 1.77092 57.4371 1.47091 58.3228 1.15662C59.2085 0.813763 59.9371 0.499474 60.5085 0.213755C60.5371 0.185184 60.5942 0.170898 60.6799 0.170898C60.8228 0.170898 60.9085 0.213756 60.9371 0.299472C61.0514 0.470902 61.0371 0.599474 60.8942 0.68519C60.6657 0.828049 60.3799 1.14234 60.0371 1.62806C59.6942 2.0852 59.5228 2.74235 59.5228 3.5995V29.314C59.5514 29.6855 59.6228 30.014 59.7371 30.2998C59.8228 30.5569 59.9656 30.7998 60.1656 31.0283C60.3942 31.2283 60.7085 31.3283 61.1085 31.3283H61.4514C61.7085 31.3283 61.78 31.4283 61.6657 31.6283L61.4942 31.9283C61.4085 32.0712 61.2942 32.1426 61.1514 32.1426H51.1656C50.9941 32.1426 50.8656 32.0569 50.7798 31.8855L50.6941 31.6712C50.6084 31.4712 50.6941 31.3712 50.9513 31.3712H51.2513C51.5084 31.3426 51.7513 31.2712 51.9799 31.1569C52.1513 31.0426 52.3084 30.8712 52.4513 30.6426C52.5942 30.414 52.6656 30.0855 52.6656 29.6569V5.27095Z" fill="#E6FFCF"/>
<path d="M61.286 12.2996C61.7717 12.2424 62.3431 12.1424 63.0003 11.9996C63.686 11.8282 64.4146 11.6424 65.186 11.4424C65.9574 11.2424 66.7432 11.0281 67.5432 10.7996C68.3718 10.571 69.1575 10.371 69.9003 10.1996H70.0289C70.2003 10.1996 70.3003 10.2424 70.3289 10.3281L70.3718 10.371C70.4289 10.4567 70.4575 10.5853 70.4575 10.7567C70.4004 10.9567 70.3146 11.2853 70.2003 11.7424C70.1146 12.171 70.0718 12.5996 70.0718 13.0282V29.314C70.1003 29.6855 70.1718 30.014 70.2861 30.2998C70.3718 30.5569 70.5146 30.7998 70.7146 31.0283C70.9432 31.2283 71.2575 31.3283 71.6575 31.3283H72.0004C72.2575 31.3283 72.3289 31.4283 72.2146 31.6283L72.0432 31.9283C71.9575 32.0712 71.8432 32.1426 71.7004 32.1426H61.7146C61.5431 32.1426 61.4145 32.0569 61.3288 31.8855L61.2431 31.6712C61.1574 31.4712 61.2431 31.3712 61.5003 31.3712H61.8003C62.0574 31.3426 62.3003 31.2712 62.5288 31.1569C62.7003 31.0426 62.8574 30.8712 63.0003 30.6426C63.1431 30.414 63.2146 30.0855 63.2146 29.6569V14.271C63.2146 13.9567 63.1431 13.7139 63.0003 13.5425C62.8574 13.371 62.686 13.2425 62.486 13.1567C62.3146 13.071 62.1146 13.0139 61.886 12.9853C61.686 12.9567 61.5003 12.9425 61.3288 12.9425C61.1288 12.9996 61.0288 12.8996 61.0288 12.6424C60.9717 12.471 61.0574 12.3567 61.286 12.2996ZM65.0574 2.9995C65.886 2.74235 66.6575 2.61378 67.3717 2.61378C68.1146 2.61378 68.7718 2.78521 69.3432 3.12807C69.9146 3.44236 70.3146 4.01379 70.5432 4.84237C70.7146 5.41381 70.7432 5.94238 70.6289 6.4281C70.5146 6.88525 70.2861 7.29954 69.9432 7.67097C69.6289 8.01383 69.2003 8.32812 68.6575 8.61384C68.1432 8.87098 67.5718 9.09956 66.9432 9.29956C66.5432 9.44242 66.1432 9.5567 65.7432 9.64242C65.3432 9.69956 64.9574 9.72814 64.586 9.72814C63.8431 9.72814 63.186 9.5567 62.6146 9.21384C62.0717 8.87098 61.686 8.29955 61.4574 7.49954C61.286 6.92811 61.2574 6.41382 61.3717 5.95667C61.486 5.47095 61.7003 5.04238 62.0146 4.67094C62.3574 4.29951 62.786 3.98522 63.3003 3.72808C63.8431 3.44236 64.4289 3.1995 65.0574 2.9995Z" fill="#E6FFCF"/>
<path d="M72.2136 17.4425C72.2136 16.2425 72.4851 15.1853 73.0279 14.271C73.5994 13.3282 74.3565 12.5424 75.2994 11.9139C76.2423 11.2567 77.328 10.771 78.5566 10.4567C79.8137 10.1139 81.1423 9.94242 82.5423 9.94242C83.4566 9.94242 84.3423 10.0424 85.1995 10.2424C86.0852 10.4139 86.8852 10.6853 87.5995 11.0567C88.3138 11.3996 88.8852 11.8424 89.3138 12.3853C89.7424 12.8996 89.9567 13.5139 89.9567 14.2282C89.9567 14.7139 89.8281 15.1568 89.571 15.5568C89.3424 15.9568 89.0281 16.3139 88.6281 16.6282C88.2566 16.9139 87.8424 17.1425 87.3852 17.3139C86.9281 17.4854 86.4709 17.5711 86.0138 17.5711C85.2423 17.5711 84.5995 17.3282 84.0852 16.8425C83.5709 16.3282 83.3138 15.5853 83.3138 14.6139C83.3138 13.4996 82.9995 12.671 82.3709 12.1282C81.7709 11.5853 81.0566 11.3139 80.228 11.3139C79.3137 11.3139 78.528 11.5853 77.8708 12.1282C77.2423 12.6424 76.928 13.371 76.928 14.3139C76.928 14.8282 77.0423 15.3425 77.2708 15.8568C77.4994 16.3711 77.8423 16.8282 78.2994 17.2282C78.7851 17.6282 79.3851 17.9568 80.0994 18.2139C80.8423 18.4711 81.7137 18.5996 82.7137 18.5996C82.9423 18.5996 83.1852 18.5996 83.4423 18.5996C83.6995 18.5996 83.9709 18.5711 84.2566 18.5139H84.3423C84.8281 18.5139 85.4423 18.6139 86.1852 18.8139C86.9281 19.0139 87.6424 19.3711 88.3281 19.8854C89.0138 20.3997 89.5995 21.0997 90.0852 21.9854C90.5995 22.8711 90.8567 23.9854 90.8567 25.3283C90.8567 26.5283 90.5995 27.5997 90.0852 28.5426C89.5709 29.4569 88.8424 30.2426 87.8995 30.8998C86.9852 31.5283 85.8852 31.9998 84.5995 32.3141C83.3138 32.6569 81.8995 32.8284 80.3566 32.8284C79.3566 32.8284 78.3708 32.7284 77.3994 32.5284C76.428 32.3569 75.5565 32.0998 74.7851 31.7569C74.0137 31.3855 73.3851 30.9426 72.8994 30.4283C72.4422 29.8855 72.2136 29.2569 72.2136 28.5426C72.2136 28.0283 72.3422 27.5712 72.5994 27.1712C72.8851 26.7426 73.2422 26.3854 73.6708 26.0997C74.0994 25.814 74.5708 25.5997 75.0851 25.4569C75.5994 25.2854 76.0851 25.1997 76.5423 25.1997C77.3994 25.1997 78.0994 25.4569 78.6423 25.9711C79.2137 26.4569 79.4994 27.1854 79.4994 28.1569C79.4994 29.1855 79.8137 29.9998 80.4423 30.5998C81.0994 31.1712 81.928 31.4569 82.928 31.4569C83.7566 31.4569 84.4995 31.1998 85.1566 30.6855C85.8138 30.1712 86.1423 29.4283 86.1423 28.4569C86.1423 27.914 86.0281 27.3854 85.7995 26.8712C85.5709 26.3283 85.2281 25.8426 84.7709 25.414C84.3138 24.9854 83.728 24.6426 83.0137 24.3854C82.2995 24.1283 81.4566 23.9997 80.4852 23.9997C79.9709 23.9997 79.4137 24.0426 78.8137 24.1283H78.728C78.2423 24.1283 77.628 24.0283 76.8851 23.8283C76.1423 23.5997 75.428 23.2283 74.7422 22.714C74.0565 22.1997 73.4565 21.514 72.9422 20.6568C72.4565 19.7997 72.2136 18.7282 72.2136 17.4425Z" fill="#E6FFCF"/>
<path d="M92.0912 5.27095C92.0912 4.95666 92.0197 4.7138 91.8769 4.54237C91.734 4.37094 91.5626 4.24237 91.3626 4.15665C91.1912 4.07094 90.9912 4.01379 90.7626 3.98522C90.5626 3.95665 90.3769 3.94236 90.2054 3.94236C90.0054 3.99951 89.9054 3.89951 89.9054 3.64236C89.8483 3.47093 89.934 3.35664 90.1626 3.2995C90.734 3.21378 91.4483 3.05664 92.3055 2.82807C93.1912 2.59949 94.0912 2.34235 95.0055 2.05663C95.9484 1.77092 96.8626 1.47091 97.7484 1.15662C98.6341 0.813763 99.3627 0.499474 99.9341 0.213755C99.9627 0.185184 100.02 0.170898 100.106 0.170898C100.248 0.170898 100.334 0.213756 100.363 0.299472C100.477 0.470902 100.463 0.599474 100.32 0.68519C100.091 0.828049 99.8055 1.14234 99.4627 1.62806C99.1198 2.0852 98.9484 2.74235 98.9484 3.5995V29.314C98.977 29.6855 99.0484 30.014 99.1627 30.2998C99.2484 30.5569 99.3912 30.7998 99.5912 31.0283C99.8198 31.2283 100.134 31.3283 100.534 31.3283H100.877C101.134 31.3283 101.206 31.4283 101.091 31.6283L100.92 31.9283C100.834 32.0712 100.72 32.1426 100.577 32.1426H90.5912C90.4197 32.1426 90.2912 32.0569 90.2054 31.8855L90.1197 31.6712C90.034 31.4712 90.1197 31.3712 90.3769 31.3712H90.6769C90.934 31.3426 91.1769 31.2712 91.4055 31.1569C91.5769 31.0426 91.734 30.8712 91.8769 30.6426C92.0197 30.414 92.0912 30.0855 92.0912 29.6569V5.27095Z" fill="#E6FFCF"/>
<path d="M100.458 21.3425C100.458 19.5425 100.758 17.9425 101.358 16.5425C101.958 15.1425 102.773 13.9567 103.801 12.9853C104.858 11.9853 106.087 11.2281 107.487 10.7139C108.887 10.1996 110.373 9.94242 111.944 9.94242C113.544 9.94242 115.03 10.1996 116.401 10.7139C117.801 11.2281 119.016 11.9853 120.044 12.9853C121.102 13.9567 121.93 15.1425 122.53 16.5425C123.13 17.9425 123.43 19.5425 123.43 21.3425C123.43 23.1425 123.13 24.7426 122.53 26.1426C121.93 27.5426 121.102 28.7426 120.044 29.7426C119.016 30.7141 117.801 31.4569 116.401 31.9712C115.03 32.4855 113.544 32.7426 111.944 32.7426C110.373 32.7426 108.887 32.4855 107.487 31.9712C106.087 31.4569 104.858 30.7141 103.801 29.7426C102.773 28.7426 101.958 27.5426 101.358 26.1426C100.758 24.7426 100.458 23.1425 100.458 21.3425ZM106.416 30.2569C106.701 30.3998 106.973 30.4712 107.23 30.4712C108.087 30.4712 109.159 29.8998 110.444 28.7569C111.759 27.5854 113.187 25.714 114.73 23.1425C116.559 20.0568 117.63 17.6139 117.944 15.8139C118.259 14.0139 118.001 12.871 117.173 12.3853C116.887 12.2424 116.601 12.171 116.316 12.171C115.459 12.171 114.373 12.7567 113.059 13.9282C111.773 15.071 110.359 16.9425 108.816 19.5425C106.987 22.5997 105.916 25.0283 105.601 26.8283C105.316 28.6283 105.587 29.7712 106.416 30.2569Z" fill="#E6FFCF"/>
<path d="M148.524 31.3712C148.495 31.4855 148.395 31.5712 148.224 31.6283L142.909 32.5284C141.766 32.5284 140.823 32.2998 140.081 31.8426C139.366 31.3569 138.709 30.6569 138.109 29.7426L135.195 25.3711C134.795 24.714 134.338 24.1854 133.823 23.7854C133.338 23.3568 132.752 23.1425 132.066 23.1425C131.838 23.1425 131.666 23.1568 131.552 23.1854V29.314C131.58 29.6855 131.652 30.014 131.766 30.2998C131.852 30.5569 131.995 30.7998 132.195 31.0283C132.423 31.2283 132.738 31.3283 133.138 31.3283H133.481C133.738 31.3283 133.809 31.4283 133.695 31.6283L133.523 31.9283C133.438 32.0712 133.323 32.1426 133.181 32.1426H123.195C123.023 32.1426 122.895 32.0569 122.809 31.8855L122.723 31.6712C122.638 31.4712 122.723 31.3712 122.98 31.3712H123.28C123.652 31.3712 123.923 31.2855 124.095 31.1141C124.295 30.9426 124.438 30.7426 124.523 30.514C124.638 30.2569 124.695 29.9712 124.695 29.6569V5.27095C124.695 4.95666 124.623 4.7138 124.48 4.54237C124.338 4.37094 124.166 4.24237 123.966 4.15665C123.795 4.07094 123.595 4.01379 123.366 3.98522C123.166 3.95665 122.98 3.94236 122.809 3.94236C122.609 3.99951 122.509 3.89951 122.509 3.64236C122.452 3.47093 122.538 3.35664 122.766 3.2995C123.338 3.15664 124.052 2.98521 124.909 2.78521C125.795 2.55664 126.709 2.31378 127.652 2.05663C128.595 1.77092 129.495 1.47091 130.352 1.15662C131.238 0.842334 131.966 0.528045 132.538 0.213755C132.566 0.185184 132.623 0.170898 132.709 0.170898C132.852 0.170898 132.938 0.213756 132.966 0.299472C133.052 0.44233 133.038 0.570903 132.923 0.68519C132.723 0.885191 132.438 1.21377 132.066 1.67091C131.723 2.09949 131.552 2.74235 131.552 3.5995V12.9853C131.781 12.8139 132.109 12.571 132.538 12.2567C132.995 11.9139 133.566 11.5853 134.252 11.271C134.966 10.9567 135.781 10.6853 136.695 10.4567C137.638 10.2281 138.695 10.1139 139.866 10.1139C141.295 10.1139 142.423 10.2996 143.252 10.671C144.109 11.0424 144.766 11.4853 145.223 11.9996C145.681 12.5139 145.966 13.0425 146.081 13.5853C146.223 14.0996 146.295 14.5139 146.295 14.8282C146.295 15.8853 146.081 16.8139 145.652 17.6139C145.252 18.4139 144.709 19.1139 144.023 19.7139C143.338 20.2854 142.552 20.7854 141.666 21.214C140.809 21.614 139.923 21.9425 139.009 22.1997C139.666 22.314 140.223 22.5568 140.681 22.9283C141.166 23.2711 141.638 23.7283 142.095 24.2997C142.552 24.8711 143.023 25.5283 143.509 26.2712C143.995 27.014 144.552 27.8426 145.181 28.7569C145.438 29.1283 145.723 29.4569 146.038 29.7426C146.323 29.9998 146.638 30.2426 146.981 30.4712C147.324 30.6712 147.695 30.7712 148.095 30.7712H148.438C148.695 30.7712 148.766 30.8712 148.652 31.0712L148.524 31.3712ZM137.938 15.9425C137.938 15.7139 137.909 15.3996 137.852 14.9996C137.795 14.571 137.652 14.1567 137.423 13.7567C137.223 13.3567 136.938 13.0139 136.566 12.7282C136.195 12.4424 135.681 12.2996 135.023 12.2996C134.223 12.2996 133.552 12.471 133.009 12.8139C132.495 13.1567 132.081 13.5139 131.766 13.8853C131.738 13.9139 131.695 13.9853 131.638 14.0996L131.595 14.271C131.566 14.2996 131.552 14.371 131.552 14.4853V21.814C131.552 22.214 131.781 22.414 132.238 22.414C132.752 22.3568 133.338 22.2283 133.995 22.0283C134.652 21.7997 135.266 21.4425 135.838 20.9568C136.438 20.4711 136.938 19.8282 137.338 19.0282C137.738 18.1996 137.938 17.1711 137.938 15.9425Z" fill="#E6FFCF"/>
<path d="M158.388 18.7282C160.045 18.6996 161.26 18.3282 162.031 17.6139C162.802 16.8996 163.188 15.9996 163.188 14.9139C163.188 13.8282 162.86 12.9139 162.202 12.171C161.545 11.4282 160.66 11.0567 159.545 11.0567C158.602 11.0567 157.831 11.371 157.231 11.9996C156.631 12.6282 156.331 13.4996 156.331 14.6139C156.331 15.5853 156.074 16.3282 155.56 16.8425C155.045 17.3282 154.402 17.5711 153.631 17.5711C153.202 17.5711 152.745 17.4854 152.259 17.3139C151.802 17.1425 151.374 16.9139 150.974 16.6282C150.602 16.3139 150.288 15.9568 150.031 15.5568C149.802 15.1282 149.688 14.6853 149.688 14.2282C149.688 13.5139 149.902 12.8996 150.331 12.3853C150.759 11.8424 151.331 11.3996 152.045 11.0567C152.759 10.6853 153.56 10.4139 154.445 10.2424C155.331 10.0424 156.217 9.94242 157.102 9.94242C158.502 9.94242 159.817 10.1139 161.045 10.4567C162.302 10.771 163.402 11.2567 164.345 11.9139C165.288 12.5424 166.031 13.3282 166.574 14.271C167.145 15.1853 167.431 16.2425 167.431 17.4425V29.314C167.46 29.6855 167.531 30.014 167.645 30.2998C167.731 30.5569 167.874 30.7998 168.074 31.0283C168.303 31.2283 168.617 31.3283 169.017 31.3283H169.445C169.645 31.3283 169.76 31.4141 169.788 31.5855C169.788 31.8141 169.588 31.9998 169.188 32.1426C168.788 32.2855 168.331 32.3998 167.817 32.4855C167.331 32.5712 166.845 32.6284 166.36 32.6569C165.874 32.6855 165.545 32.6998 165.374 32.6998C164.402 32.6712 163.488 32.5284 162.631 32.2712C161.802 32.0141 161.231 31.5426 160.917 30.8569C160.317 31.4569 159.588 31.9283 158.731 32.2712C157.874 32.6426 156.76 32.8284 155.388 32.8284C154.388 32.8284 153.402 32.6569 152.431 32.3141C151.459 31.9998 150.588 31.5283 149.817 30.8998C149.045 30.2426 148.417 29.4569 147.931 28.5426C147.474 27.6283 147.245 26.5712 147.245 25.3711C147.245 24.0283 147.517 22.914 148.059 22.0283C148.631 21.1425 149.302 20.4425 150.074 19.9282C150.874 19.4139 151.688 19.0568 152.517 18.8568C153.374 18.6568 154.074 18.5568 154.617 18.5568C155.274 18.6139 155.931 18.6568 156.588 18.6854C157.274 18.7139 157.874 18.7282 158.388 18.7282ZM157.274 31.6712C158.188 31.6712 158.945 31.0569 159.545 29.8283C160.174 28.5712 160.488 26.714 160.488 24.2568V20.3568C160.488 19.7568 160.16 19.4568 159.502 19.4568C159.245 19.4568 158.945 19.4568 158.602 19.4568C158.288 19.4568 157.945 19.4711 157.574 19.4997C157.202 19.5282 156.831 19.6282 156.46 19.7997C156.088 19.9425 155.76 20.2282 155.474 20.6568C155.188 21.0854 154.96 21.6568 154.788 22.3711C154.617 23.0854 154.531 24.014 154.531 25.1569C154.531 27.414 154.802 29.0712 155.345 30.1283C155.917 31.1569 156.56 31.6712 157.274 31.6712Z" fill="#E6FFCF"/>
</svg>
