<svg width="70" height="70" viewBox="0 0 70 70" fill="none" xmlns="http://www.w3.org/2000/svg">
<path d="M34.9375 0C15.6735 0 0 15.6735 0 34.9375C0 54.2015 15.6735 69.875 34.9375 69.875C54.2015 69.875 69.875 54.2015 69.875 34.9375C69.875 15.6735 54.2015 0 34.9375 0ZM34.9375 5.375C51.2963 5.375 64.5 18.5787 64.5 34.9375C64.5 51.2963 51.2963 64.5 34.9375 64.5C18.5787 64.5 5.375 51.2963 5.375 34.9375C5.375 18.5787 18.5787 5.375 34.9375 5.375ZM36.8725 17.7214L33.0025 21.5L43.7525 32.25H16.125V37.625H43.7525L33.0025 48.375L36.8725 52.1536L52.1536 36.8698L54.0886 34.9348L52.1536 32.9998L36.8698 17.7187L36.8725 17.7214Z" fill="#004035"/>
</svg>
