<svg width="70" height="70" viewBox="0 0 70 70" fill="none" xmlns="http://www.w3.org/2000/svg">
<path d="M34.9375 0C54.2015 0 69.875 15.6735 69.875 34.9375C69.875 54.2015 54.2015 69.875 34.9375 69.875C15.6735 69.875 0 54.2015 0 34.9375C0 15.6735 15.6735 0 34.9375 0ZM34.9375 5.375C18.5787 5.375 5.375 18.5787 5.375 34.9375C5.375 51.2963 18.5787 64.5 34.9375 64.5C51.2963 64.5 64.5 51.2963 64.5 34.9375C64.5 18.5787 51.2963 5.375 34.9375 5.375ZM33.0025 17.7214L36.8725 21.5L26.1225 32.25H53.75V37.625H26.1225L36.8725 48.375L33.0025 52.1536L17.7214 36.8698L15.7864 34.9348L17.7214 32.9998L33.0052 17.7187L33.0025 17.7214Z" fill="#004035"/>
</svg>
