<svg width="93" height="93" viewBox="0 0 93 93" fill="none" xmlns="http://www.w3.org/2000/svg">
<path d="M3.875 85.25C3.875 87.3425 5.61875 89.125 7.75 89.125H58.125C60.295 89.125 62 87.3425 62 85.25V81.375H3.875V85.25ZM32.9375 34.875C18.4063 34.875 3.875 42.625 3.875 58.125H62C62 42.625 47.4688 34.875 32.9375 34.875ZM14.0275 50.375C18.3288 44.3688 27.4738 42.625 32.9375 42.625C38.4013 42.625 47.5463 44.3688 51.8475 50.375H14.0275ZM3.875 65.875H62V73.625H3.875V65.875ZM69.75 19.375V3.875H62V19.375H42.625L43.5163 27.125H80.5613L75.1363 81.375H69.75V89.125H76.415C79.67 89.125 82.3438 86.6063 82.7313 83.4288L89.125 19.375H69.75Z" fill="#004035"/>
</svg>
