<svg width="93" height="93" viewBox="0 0 93 93" fill="none" xmlns="http://www.w3.org/2000/svg">
<path d="M23.2498 16.2752C23.2498 15.6586 23.4948 15.0672 23.9308 14.6312C24.3668 14.1952 24.9582 13.9502 25.5748 13.9502H39.5248C40.1414 13.9502 40.7328 14.1952 41.1688 14.6312C41.6049 15.0672 41.8498 15.6586 41.8498 16.2752V30.2252C41.8498 30.8418 41.6049 31.4332 41.1688 31.8692C40.7328 32.3052 40.1414 32.5502 39.5248 32.5502H25.5748C24.9582 32.5502 24.3668 32.3052 23.9308 31.8692C23.4948 31.4332 23.2498 30.8418 23.2498 30.2252V16.2752ZM53.4748 13.9502C52.8582 13.9502 52.2668 14.1952 51.8308 14.6312C51.3948 15.0672 51.1498 15.6586 51.1498 16.2752V30.2252C51.1498 30.8418 51.3948 31.4332 51.8308 31.8692C52.2668 32.3052 52.8582 32.5502 53.4748 32.5502H67.4248C68.0414 32.5502 68.6328 32.3052 69.0688 31.8692C69.5049 31.4332 69.7498 30.8418 69.7498 30.2252V16.2752C69.7498 15.6586 69.5049 15.0672 69.0688 14.6312C68.6328 14.1952 68.0414 13.9502 67.4248 13.9502H53.4748ZM55.7998 27.9002V18.6002H65.0998V27.9002H55.7998ZM27.8998 60.4502C29.1331 60.4502 30.3158 59.9603 31.1879 59.0882C32.0599 58.2162 32.5498 57.0335 32.5498 55.8002C32.5498 54.5669 32.0599 53.3842 31.1879 52.5121C30.3158 51.6401 29.1331 51.1502 27.8998 51.1502C26.6665 51.1502 25.4838 51.6401 24.6118 52.5121C23.7397 53.3842 23.2498 54.5669 23.2498 55.8002C23.2498 57.0335 23.7397 58.2162 24.6118 59.0882C25.4838 59.9603 26.6665 60.4502 27.8998 60.4502ZM51.1498 55.8002C51.1498 57.0335 50.6599 58.2162 49.7878 59.0882C48.9158 59.9603 47.7331 60.4502 46.4998 60.4502C45.2665 60.4502 44.0838 59.9603 43.2118 59.0882C42.3397 58.2162 41.8498 57.0335 41.8498 55.8002C41.8498 54.5669 42.3397 53.3842 43.2118 52.5121C44.0838 51.6401 45.2665 51.1502 46.4998 51.1502C47.7331 51.1502 48.9158 51.6401 49.7878 52.5121C50.6599 53.3842 51.1498 54.5669 51.1498 55.8002ZM65.0998 60.4502C66.3331 60.4502 67.5158 59.9603 68.3879 59.0882C69.2599 58.2162 69.7498 57.0335 69.7498 55.8002C69.7498 54.5669 69.2599 53.3842 68.3879 52.5121C67.5158 51.6401 66.3331 51.1502 65.0998 51.1502C63.8666 51.1502 62.6838 51.6401 61.8118 52.5121C60.9397 53.3842 60.4498 54.5669 60.4498 55.8002C60.4498 57.0335 60.9397 58.2162 61.8118 59.0882C62.6838 59.9603 63.8666 60.4502 65.0998 60.4502ZM9.2998 55.8002C9.2998 50.8672 11.2594 46.1362 14.7476 42.648C18.2358 39.1598 22.9668 37.2002 27.8998 37.2002H65.0998C70.0328 37.2002 74.7638 39.1598 78.252 42.648C81.7402 46.1362 83.6998 50.8672 83.6998 55.8002C83.6998 60.7332 81.7402 65.4642 78.252 68.9524C74.7638 72.4406 70.0328 74.4002 65.0998 74.4002H27.8998C22.9668 74.4002 18.2358 72.4406 14.7476 68.9524C11.2594 65.4642 9.2998 60.7332 9.2998 55.8002ZM27.8998 41.8502C24.2 41.8502 20.6518 43.3199 18.0357 45.9361C15.4195 48.5522 13.9498 52.1004 13.9498 55.8002C13.9498 59.5 15.4195 63.0482 18.0357 65.6643C20.6518 68.2805 24.2 69.7502 27.8998 69.7502H65.0998C68.7996 69.7502 72.3478 68.2805 74.964 65.6643C77.5801 63.0482 79.0498 59.5 79.0498 55.8002C79.0498 52.1004 77.5801 48.5522 74.964 45.9361C72.3478 43.3199 68.7996 41.8502 65.0998 41.8502H27.8998Z" fill="#004035"/>
</svg>
