<svg width="495" height="604" viewBox="0 0 495 604" fill="none" xmlns="http://www.w3.org/2000/svg">
<path d="M492.38 0C501.92 69.0219 474.939 152.637 417.605 215.346C360.272 278.055 283.826 305.391 220.722 294.958C220.722 224.73 238.75 145.137 296.082 82.43C353.415 19.7214 428.171 0 492.38 0Z" fill="#00AB4A"/>
<path d="M492.38 603.273C501.92 534.251 474.939 450.105 417.605 387.395C360.272 324.687 283.826 297.35 220.722 307.783C220.722 378.012 238.75 457.604 296.082 520.312C353.415 583.02 428.171 603.273 492.38 603.273Z" fill="#00AB4A"/>
<rect width="32.3328" height="602.742" transform="matrix(-1 0 0 1 32.333 0)" fill="#00AB4A"/>
<rect width="52.4032" height="602.742" transform="matrix(-1 0 0 1 101.87 0)" fill="#00AB4A"/>
<rect width="84.8932" height="602.742" transform="matrix(-1 0 0 1 203.743 0)" fill="#00AB4A"/>
</svg>
