<svg width="28" height="28" viewBox="0 0 28 28" fill="none" xmlns="http://www.w3.org/2000/svg">
<path d="M8.01455 0H19.6218C24.0436 0 27.6364 3.59273 27.6364 8.01455V19.6218C27.6364 21.7474 26.792 23.7859 25.289 25.289C23.7859 26.792 21.7474 27.6364 19.6218 27.6364H8.01455C3.59273 27.6364 0 24.0436 0 19.6218V8.01455C0 5.88896 0.844387 3.85043 2.34741 2.34741C3.85043 0.844387 5.88896 0 8.01455 0ZM7.73818 2.76364C6.41885 2.76364 5.15356 3.28774 4.22065 4.22065C3.28774 5.15356 2.76364 6.41885 2.76364 7.73818V19.8982C2.76364 22.648 4.98836 24.8727 7.73818 24.8727H19.8982C21.2175 24.8727 22.4828 24.3486 23.4157 23.4157C24.3486 22.4828 24.8727 21.2175 24.8727 19.8982V7.73818C24.8727 4.98836 22.648 2.76364 19.8982 2.76364H7.73818ZM21.0727 4.83636C21.5308 4.83636 21.9702 5.01834 22.2941 5.34227C22.618 5.6662 22.8 6.10554 22.8 6.56364C22.8 7.02174 22.618 7.46108 22.2941 7.785C21.9702 8.10893 21.5308 8.29091 21.0727 8.29091C20.6146 8.29091 20.1753 8.10893 19.8514 7.785C19.5274 7.46108 19.3455 7.02174 19.3455 6.56364C19.3455 6.10554 19.5274 5.6662 19.8514 5.34227C20.1753 5.01834 20.6146 4.83636 21.0727 4.83636ZM13.8182 6.90909C15.6506 6.90909 17.4079 7.63701 18.7036 8.93272C19.9994 10.2284 20.7273 11.9858 20.7273 13.8182C20.7273 15.6506 19.9994 17.4079 18.7036 18.7036C17.4079 19.9994 15.6506 20.7273 13.8182 20.7273C11.9858 20.7273 10.2284 19.9994 8.93272 18.7036C7.63701 17.4079 6.90909 15.6506 6.90909 13.8182C6.90909 11.9858 7.63701 10.2284 8.93272 8.93272C10.2284 7.63701 11.9858 6.90909 13.8182 6.90909ZM13.8182 9.67273C12.7187 9.67273 11.6643 10.1095 10.8869 10.8869C10.1095 11.6643 9.67273 12.7187 9.67273 13.8182C9.67273 14.9176 10.1095 15.972 10.8869 16.7495C11.6643 17.5269 12.7187 17.9636 13.8182 17.9636C14.9176 17.9636 15.972 17.5269 16.7495 16.7495C17.5269 15.972 17.9636 14.9176 17.9636 13.8182C17.9636 12.7187 17.5269 11.6643 16.7495 10.8869C15.972 10.1095 14.9176 9.67273 13.8182 9.67273Z" fill="#E6FFCF"/>
</svg>
