<svg width="47" height="81" viewBox="0 0 47 81" fill="none" xmlns="http://www.w3.org/2000/svg">
<path d="M15.4807 16.2V20.25C15.4807 23.652 12.9718 26.514 9.66212 26.946L7.52685 50.652C10.9433 46.98 15.3206 43.308 20.8189 39.582C26.4774 35.802 32.1359 33.48 37.7944 32.724L37.3139 26.946C34.0043 26.514 31.4953 23.652 31.4953 20.25V16.2H15.4807ZM10.1426 16.2H7.47346C5.97877 16.2 4.80437 15.012 4.80437 13.5V5.4C4.80437 2.43 7.20655 0 10.1426 0H36.8335C39.7695 0 42.1717 2.43 42.1717 5.4V13.5C42.1717 15.012 40.9973 16.2 39.5026 16.2H36.8335V20.25C36.8335 21.006 37.4207 21.6 38.168 21.6H39.5026C40.9973 21.6 42.2785 22.788 42.4386 24.3L46.9761 75.114C47.1099 76.5389 46.679 77.9592 45.7781 79.0629C44.8773 80.1665 43.5801 80.8633 42.1717 81H5.33819C2.3488 81 0 78.57 0 75.6V75.114L4.53746 24.3C4.69761 22.788 5.97877 21.6 7.47346 21.6H8.80801C9.55536 21.6 10.1426 21.006 10.1426 20.25V16.2Z" fill="#004035"/>
</svg>
