<svg width="32" height="35" viewBox="0 0 32 35" fill="none" xmlns="http://www.w3.org/2000/svg">
<path d="M15.8333 0C24.5781 0 31.6667 7.08858 31.6667 15.8333C31.6667 24.5781 24.5781 31.6667 15.8333 31.6667C13.1385 31.6705 10.4876 30.9836 8.1336 29.6717L7.65068 29.3898L2.85001 30.8022C2.58877 30.8792 2.31219 30.8881 2.0465 30.8283C1.7808 30.7684 1.5348 30.6417 1.33181 30.4601C1.12882 30.2785 0.975573 30.0481 0.886589 29.7907C0.797605 29.5333 0.775836 29.2574 0.823346 28.9893L0.864513 28.8167L2.27685 24.016C0.783848 21.548 -0.00366136 18.7178 1.27978e-05 15.8333C1.27978e-05 7.08858 7.0886 0 15.8333 0ZM15.8333 3.16667C13.5654 3.16626 11.339 3.77476 9.38654 4.92862C7.43409 6.08249 5.82724 7.7394 4.7338 9.72632C3.64036 11.7132 3.10044 13.9573 3.17041 16.2241C3.24039 18.491 3.91769 20.6975 5.1316 22.6132C5.4451 23.1072 5.57968 23.7152 5.4736 24.3184L5.41185 24.5765L4.7136 26.9531L7.09018 26.2548C7.77576 26.0522 8.48826 26.1757 9.05351 26.5351C10.7134 27.5861 12.5949 28.2366 14.5495 28.4351C16.504 28.6337 18.478 28.3749 20.3153 27.6792C22.1526 26.9835 23.8029 25.8699 25.1357 24.4265C26.4685 22.9832 27.4473 21.2496 27.9947 19.3627C28.5422 17.4759 28.6432 15.4877 28.2898 13.5551C27.9365 11.6225 27.1384 9.79862 25.9587 8.2276C24.7791 6.65657 23.2502 5.38148 21.4928 4.50313C19.7355 3.62477 17.798 3.16723 15.8333 3.16667ZM11.2448 8.208C11.4203 8.13286 11.6122 8.10431 11.8019 8.12512C11.9917 8.14592 12.1728 8.21537 12.3278 8.32675C13.1258 8.90942 13.7592 9.69158 14.3038 10.4548L14.8216 11.2052L15.0638 11.5615C15.2041 11.7657 15.2731 12.0105 15.2599 12.2579C15.2467 12.5053 15.1522 12.7414 14.991 12.9295L14.8723 13.0498L13.4093 14.136C13.3397 14.1876 13.2907 14.2624 13.2713 14.3468C13.2518 14.4313 13.2631 14.5199 13.3032 14.5968C13.6357 15.1984 14.2231 16.0962 14.8976 16.7707C15.5737 17.4452 16.5126 18.0722 17.1554 18.4411C17.2948 18.5203 17.4626 18.4949 17.5766 18.392L17.6368 18.3208L18.5883 16.872C18.7628 16.639 19.0208 16.4827 19.3082 16.436C19.5955 16.3893 19.8897 16.456 20.1289 16.6218L20.9887 17.2219C21.8437 17.8315 22.6654 18.487 23.3162 19.3183C23.4366 19.4745 23.5131 19.66 23.5379 19.8556C23.5627 20.0513 23.5348 20.25 23.4571 20.4313C22.8301 21.8943 21.242 23.1404 19.5922 23.0802L19.3404 23.0644L19.038 23.0359L18.867 23.0138L18.4902 22.9504C17.0272 22.6749 14.6823 21.8452 12.2518 19.4164C9.82301 16.986 8.99335 14.6411 8.71785 13.1781L8.65451 12.8013L8.61493 12.4719L8.59435 12.1948L8.58801 12.0761C8.52785 10.4231 9.78026 8.835 11.2448 8.208Z" fill="#E6FFCF"/>
</svg>
