<svg width="29" height="29" viewBox="0 0 29 29" fill="none" xmlns="http://www.w3.org/2000/svg">
<path d="M1.24365 14.3709C1.24365 8.18314 1.24365 5.08787 3.16576 3.16576C5.08787 1.24365 8.18176 1.24365 14.3723 1.24365C20.5601 1.24365 23.654 1.24365 25.5761 3.16576C27.4982 5.08787 27.4982 8.18176 27.4982 14.3709C27.4982 20.5587 27.4982 23.654 25.5761 25.5761C23.654 27.4982 20.5601 27.4982 14.3709 27.4982C8.18314 27.4982 5.08925 27.4982 3.16576 25.5761C1.24503 23.6526 1.24365 20.5601 1.24365 14.3709Z" stroke="#E6FFCF" stroke-width="2.48727" stroke-linecap="round" stroke-linejoin="round"/>
<path d="M7.46182 21.2801L13.2572 15.4861M13.2572 15.4861L7.46182 7.46191H11.2991L15.486 13.2573L21.28 7.46191M13.2572 15.4861L17.4413 21.2801H21.28L15.486 13.2559" stroke="#E6FFCF" stroke-width="2.07273" stroke-linecap="round" stroke-linejoin="round"/>
</svg>
