<svg width="165" height="32" viewBox="0 0 165 32" fill="none" xmlns="http://www.w3.org/2000/svg">
<path d="M26.1178 0C26.6239 3.6612 25.1927 8.09646 22.1515 11.4228C19.1103 14.7491 15.0553 16.1992 11.708 15.6458C11.708 11.9206 12.6643 7.69867 15.7054 4.37242C18.7466 1.0461 22.712 0 26.1178 0Z" fill="white"/>
<path d="M26.1178 32C26.6239 28.3388 25.1927 23.8754 22.1515 20.549C19.1103 17.2227 15.0553 15.7726 11.708 16.3261C11.708 20.0512 12.6643 24.2731 15.7054 27.5994C18.7466 30.9257 22.712 32 26.1178 32Z" fill="white"/>
<rect width="1.71506" height="31.9718" transform="matrix(-1 0 0 1 1.71506 0)" fill="white"/>
<rect width="2.77968" height="31.9718" transform="matrix(-1 0 0 1 5.40366 0)" fill="white"/>
<rect width="4.50307" height="31.9718" transform="matrix(-1 0 0 1 10.8074 0)" fill="white"/>
<path d="M39.2092 18.1837C40.8101 18.1557 41.9832 17.7918 42.7285 17.0919C43.4737 16.392 43.8464 15.5101 43.8464 14.4462C43.8464 13.3823 43.5289 12.4864 42.8941 11.7585C42.2592 11.0306 41.4036 10.6667 40.3271 10.6667C39.4162 10.6667 38.671 10.9746 38.0913 11.5906C37.5117 12.2065 37.2219 13.0604 37.2219 14.1522C37.2219 15.1041 36.9735 15.832 36.4766 16.336C35.9798 16.8119 35.3588 17.0499 34.6135 17.0499C34.1995 17.0499 33.7578 16.9659 33.2886 16.7979C32.847 16.6299 32.4329 16.4059 32.0465 16.126C31.6877 15.818 31.3841 15.4681 31.1356 15.0761C30.9148 14.6562 30.8044 14.2222 30.8044 13.7743C30.8044 13.0744 31.0114 12.4724 31.4255 11.9685C31.8395 11.4366 32.3915 11.0026 33.0816 10.6667C33.7716 10.3027 34.5445 10.0367 35.4002 9.86877C36.2558 9.67279 37.1115 9.5748 37.9671 9.5748C39.3196 9.5748 40.5893 9.74278 41.7762 10.0787C42.9907 10.3867 44.0534 10.8626 44.9642 11.5066C45.8751 12.1225 46.5928 12.8924 47.1172 13.8163C47.6692 14.7122 47.9453 15.748 47.9453 16.9239V28.5564C47.9729 28.9204 48.0419 29.2423 48.1523 29.5223C48.2351 29.7743 48.3731 30.0122 48.5663 30.2362C48.7871 30.4322 49.0907 30.5302 49.4772 30.5302H49.8912C50.0844 30.5302 50.1948 30.6142 50.2224 30.7822C50.2224 31.0061 50.0292 31.1881 49.6428 31.3281C49.2563 31.4681 48.8147 31.5801 48.3179 31.664C47.8486 31.748 47.3794 31.804 46.9102 31.832C46.4409 31.86 46.1235 31.874 45.9579 31.874C45.0194 31.846 44.1362 31.706 43.3081 31.4541C42.5077 31.2021 41.9556 30.7402 41.652 30.0682C41.0724 30.6562 40.3685 31.1181 39.5405 31.4541C38.7124 31.818 37.6359 32 36.311 32C35.345 32 34.3927 31.832 33.4542 31.4961C32.5157 31.1881 31.6739 30.7262 30.9286 30.1102C30.1834 29.4663 29.5761 28.6964 29.1069 27.8005C28.6653 26.9046 28.4445 25.8688 28.4445 24.6929C28.4445 23.3771 28.7067 22.2852 29.2311 21.4173C29.7832 20.5494 30.4318 19.8635 31.1771 19.3596C31.9499 18.8556 32.7366 18.5057 33.537 18.3097C34.3651 18.1137 35.0413 18.0157 35.5658 18.0157C36.2006 18.0717 36.8355 18.1137 37.4703 18.1417C38.1327 18.1697 38.7124 18.1837 39.2092 18.1837ZM38.1328 30.8661C39.016 30.8661 39.7475 30.2642 40.3271 29.0604C40.9344 27.8285 41.238 26.0087 41.238 23.601V19.7795C41.238 19.1916 40.9206 18.8976 40.2857 18.8976C40.0373 18.8976 39.7475 18.8976 39.4162 18.8976C39.1126 18.8976 38.7814 18.9116 38.4226 18.9396C38.0637 18.9676 37.7049 19.0656 37.3461 19.2336C36.9873 19.3736 36.6698 19.6535 36.3938 20.0735C36.1178 20.4934 35.897 21.0534 35.7314 21.7533C35.5658 22.4532 35.483 23.3631 35.483 24.4829C35.483 26.6947 35.7452 28.3185 36.2696 29.3543C36.8217 30.3622 37.4427 30.8661 38.1328 30.8661Z" fill="white"/>
<path d="M51.297 4.99738C51.297 4.68941 51.228 4.45144 51.0899 4.28346C50.9519 4.11549 50.7863 3.9895 50.5931 3.90551C50.4275 3.82152 50.2343 3.76553 50.0135 3.73753C49.8202 3.70954 49.6408 3.69554 49.4752 3.69554C49.282 3.75153 49.1854 3.65354 49.1854 3.40158C49.1302 3.2336 49.213 3.12161 49.4338 3.06562C49.9859 2.98163 50.6759 2.82765 51.504 2.60368C52.3596 2.3797 53.2291 2.12773 54.1124 1.84777C55.0232 1.56781 55.9065 1.27384 56.7621 0.965879C57.6178 0.629922 58.3217 0.321961 58.8737 0.0419942C58.9013 0.0139981 58.9565 0 59.0393 0C59.1773 0 59.2601 0.041995 59.2877 0.125985C59.3981 0.293964 59.3843 0.419948 59.2463 0.503938C59.0255 0.64392 58.7495 0.951882 58.4183 1.42782C58.087 1.87577 57.9214 2.51969 57.9214 3.35958V28.5564C57.949 28.9204 58.018 29.2423 58.1284 29.5223C58.2113 29.7743 58.3493 30.0122 58.5425 30.2362C58.7633 30.4322 59.0669 30.5302 59.4533 30.5302H59.7846C60.033 30.5302 60.102 30.6282 59.9916 30.8241L59.826 31.1181C59.7432 31.2581 59.6328 31.3281 59.4947 31.3281H49.8478C49.6822 31.3281 49.558 31.2441 49.4752 31.0761L49.3924 30.8661C49.3096 30.6702 49.3924 30.5722 49.6408 30.5722H49.9307C50.1791 30.5442 50.4137 30.4742 50.6345 30.3622C50.8001 30.2502 50.9519 30.0822 51.0899 29.8583C51.228 29.6343 51.297 29.3123 51.297 28.8924V4.99738Z" fill="white"/>
<path d="M59.6248 11.8845C60.094 11.8285 60.646 11.7305 61.2809 11.5906C61.9433 11.4226 62.6472 11.2406 63.3924 11.0446C64.1377 10.8486 64.8968 10.6387 65.6696 10.4147C66.4701 10.1907 67.2291 9.99475 67.9468 9.82677H68.071C68.2366 9.82677 68.3332 9.86877 68.3608 9.95276L68.4022 9.99475C68.4574 10.0787 68.485 10.2047 68.485 10.3727C68.4298 10.5687 68.347 10.8906 68.2366 11.3386C68.1538 11.7585 68.1124 12.1785 68.1124 12.5984V28.5564C68.14 28.9204 68.209 29.2423 68.3194 29.5223C68.4022 29.7743 68.5402 30.0122 68.7334 30.2362C68.9542 30.4322 69.2579 30.5302 69.6443 30.5302H69.9755C70.2239 30.5302 70.2929 30.6282 70.1825 30.8241L70.0169 31.1181C69.9341 31.2581 69.8237 31.3281 69.6857 31.3281H60.0388C59.8732 31.3281 59.749 31.2441 59.6662 31.0761L59.5834 30.8661C59.5006 30.6702 59.5834 30.5722 59.8318 30.5722H60.1216C60.37 30.5442 60.6046 30.4742 60.8255 30.3622C60.9911 30.2502 61.1429 30.0822 61.2809 29.8583C61.4189 29.6343 61.4879 29.3123 61.4879 28.8924V13.8163C61.4879 13.5083 61.4189 13.2703 61.2809 13.1024C61.1429 12.9344 60.9773 12.8084 60.7841 12.7244C60.6184 12.6404 60.4252 12.5844 60.2044 12.5564C60.0112 12.5284 59.8318 12.5144 59.6662 12.5144C59.473 12.5704 59.3764 12.4724 59.3764 12.2205C59.3211 12.0525 59.404 11.9405 59.6248 11.8845ZM63.2682 2.77166C64.0687 2.51969 64.8139 2.3937 65.504 2.3937C66.2216 2.3937 66.8565 2.56168 67.4085 2.89764C67.9606 3.2056 68.347 3.76553 68.5678 4.57743C68.7334 5.13736 68.761 5.65529 68.6506 6.13123C68.5402 6.57918 68.3194 6.98513 67.9882 7.34908C67.6846 7.68504 67.2705 7.993 66.7461 8.27297C66.2492 8.52493 65.6972 8.74891 65.09 8.94488C64.7035 9.08487 64.3171 9.19685 63.9307 9.28084C63.5443 9.33683 63.1716 9.36483 62.8128 9.36483C62.0951 9.36483 61.4603 9.19685 60.9083 8.86089C60.3838 8.52493 60.0112 7.965 59.7904 7.1811C59.6248 6.62117 59.5972 6.11724 59.7076 5.66929C59.818 5.19335 60.025 4.7734 60.3286 4.40945C60.6598 4.04549 61.0739 3.73753 61.5707 3.48556C62.0951 3.2056 62.661 2.96763 63.2682 2.77166Z" fill="white"/>
<path d="M70.1816 16.9239C70.1816 15.748 70.4438 14.7122 70.9682 13.8163C71.5203 12.8924 72.2517 12.1225 73.1626 11.5066C74.0734 10.8626 75.1223 10.3867 76.3092 10.0787C77.5237 9.74278 78.8072 9.5748 80.1597 9.5748C81.0429 9.5748 81.8986 9.67279 82.7267 9.86877C83.5823 10.0367 84.3552 10.3027 85.0452 10.6667C85.7353 11.0026 86.2873 11.4366 86.7013 11.9685C87.1154 12.4724 87.3224 13.0744 87.3224 13.7743C87.3224 14.2502 87.1982 14.6842 86.9498 15.0761C86.729 15.4681 86.4253 15.818 86.0389 16.126C85.6801 16.4059 85.2798 16.6299 84.8382 16.7979C84.3966 16.9659 83.9549 17.0499 83.5133 17.0499C82.7681 17.0499 82.147 16.8119 81.6502 16.336C81.1533 15.832 80.9049 15.1041 80.9049 14.1522C80.9049 13.0604 80.6013 12.2485 79.9941 11.7165C79.4144 11.1846 78.7244 10.9186 77.9239 10.9186C77.0406 10.9186 76.2816 11.1846 75.6468 11.7165C75.0395 12.2205 74.7359 12.9344 74.7359 13.8583C74.7359 14.3622 74.8463 14.8661 75.0671 15.3701C75.2879 15.874 75.6192 16.322 76.0608 16.7139C76.53 17.1059 77.1097 17.4278 77.7997 17.6798C78.5174 17.9318 79.3592 18.0577 80.3253 18.0577C80.5461 18.0577 80.7807 18.0577 81.0291 18.0577C81.2775 18.0577 81.5398 18.0297 81.8158 17.9738H81.8986C82.3678 17.9738 82.9613 18.0717 83.6789 18.2677C84.3966 18.4637 85.0866 18.8136 85.7491 19.3176C86.4115 19.8215 86.9774 20.5074 87.4466 21.3753C87.9434 22.2432 88.1918 23.3351 88.1918 24.6509C88.1918 25.8268 87.9434 26.8766 87.4466 27.8005C86.9498 28.6964 86.2459 29.4663 85.335 30.1102C84.4518 30.7262 83.3891 31.1881 82.147 31.4961C80.9049 31.832 79.5386 32 78.0481 32C77.0821 32 76.1298 31.902 75.1913 31.706C74.2528 31.5381 73.411 31.2861 72.6657 30.9501C71.9205 30.5862 71.3132 30.1522 70.844 29.6483C70.4024 29.1164 70.1816 28.5004 70.1816 27.8005C70.1816 27.2966 70.3058 26.8486 70.5542 26.4567C70.8302 26.0367 71.1752 25.6868 71.5893 25.4068C72.0033 25.1269 72.4587 24.9169 72.9556 24.7769C73.4524 24.6089 73.9216 24.5249 74.3633 24.5249C75.1913 24.5249 75.8676 24.7769 76.392 25.2808C76.944 25.7568 77.2201 26.4707 77.2201 27.4226C77.2201 28.4304 77.5237 29.2283 78.1309 29.8163C78.7658 30.3762 79.5662 30.6562 80.5323 30.6562C81.3328 30.6562 82.0504 30.4042 82.6853 29.9003C83.3201 29.3963 83.6375 28.6684 83.6375 27.7165C83.6375 27.1846 83.5271 26.6667 83.3063 26.1627C83.0855 25.6308 82.7543 25.1549 82.3126 24.7349C81.871 24.315 81.3052 23.979 80.6151 23.727C79.9251 23.4751 79.1108 23.3491 78.1723 23.3491C77.6755 23.3491 77.1373 23.3911 76.5576 23.4751H76.4748C76.0056 23.4751 75.4121 23.3771 74.6945 23.1811C73.9768 22.9571 73.2868 22.5932 72.6243 22.0892C71.9619 21.5853 71.3822 20.9134 70.8854 20.0735C70.4162 19.2336 70.1816 18.1837 70.1816 16.9239Z" fill="white"/>
<path d="M89.3844 4.99738C89.3844 4.68941 89.3154 4.45144 89.1774 4.28346C89.0394 4.11549 88.8738 3.9895 88.6806 3.90551C88.515 3.82152 88.3218 3.76553 88.1009 3.73753C87.9077 3.70954 87.7283 3.69554 87.5627 3.69554C87.3695 3.75153 87.2729 3.65354 87.2729 3.40158C87.2177 3.2336 87.3005 3.12161 87.5213 3.06562C88.0733 2.98163 88.7634 2.82765 89.5915 2.60368C90.4471 2.3797 91.3166 2.12773 92.1999 1.84777C93.1107 1.56781 93.994 1.27384 94.8496 0.965879C95.7053 0.629922 96.4091 0.321961 96.9612 0.0419942C96.9888 0.0139981 97.044 0 97.1268 0C97.2648 0 97.3476 0.041995 97.3752 0.125985C97.4856 0.293964 97.4718 0.419948 97.3338 0.503938C97.113 0.64392 96.837 0.951882 96.5058 1.42782C96.1745 1.87577 96.0089 2.51969 96.0089 3.35958V28.5564C96.0365 28.9204 96.1055 29.2423 96.2159 29.5223C96.2987 29.7743 96.4367 30.0122 96.63 30.2362C96.8508 30.4322 97.1544 30.5302 97.5408 30.5302H97.872C98.1205 30.5302 98.1895 30.6282 98.0791 30.8241L97.9135 31.1181C97.8307 31.2581 97.7202 31.3281 97.5822 31.3281H87.9353C87.7697 31.3281 87.6455 31.2441 87.5627 31.0761L87.4799 30.8661C87.3971 30.6702 87.4799 30.5722 87.7283 30.5722H88.0181C88.2666 30.5442 88.5012 30.4742 88.722 30.3622C88.8876 30.2502 89.0394 30.0822 89.1774 29.8583C89.3154 29.6343 89.3844 29.3123 89.3844 28.8924V4.99738Z" fill="white"/>
<path d="M97.4677 20.7454C97.4677 18.9816 97.7576 17.4138 98.3372 16.042C98.9168 14.6702 99.7035 13.5083 100.697 12.5564C101.718 11.5766 102.905 10.8346 104.258 10.3307C105.61 9.82677 107.046 9.5748 108.564 9.5748C110.109 9.5748 111.545 9.82677 112.87 10.3307C114.222 10.8346 115.395 11.5766 116.389 12.5564C117.41 13.5083 118.211 14.6702 118.79 16.042C119.37 17.4138 119.66 18.9816 119.66 20.7454C119.66 22.5092 119.37 24.077 118.79 25.4488C118.211 26.8206 117.41 27.9965 116.389 28.9764C115.395 29.9283 114.222 30.6562 112.87 31.1601C111.545 31.664 110.109 31.916 108.564 31.916C107.046 31.916 105.61 31.664 104.258 31.1601C102.905 30.6562 101.718 29.9283 100.697 28.9764C99.7035 27.9965 98.9168 26.8206 98.3372 25.4488C97.7576 24.077 97.4677 22.5092 97.4677 20.7454ZM103.223 29.4803C103.499 29.6203 103.761 29.6903 104.009 29.6903C104.837 29.6903 105.873 29.1304 107.115 28.0105C108.384 26.8626 109.764 25.0289 111.255 22.5092C113.021 19.4856 114.057 17.0919 114.36 15.3281C114.664 13.5643 114.415 12.4444 113.615 11.9685C113.339 11.8285 113.063 11.7585 112.787 11.7585C111.959 11.7585 110.91 12.3325 109.64 13.4803C108.398 14.6002 107.032 16.4339 105.541 18.9816C103.775 21.9773 102.74 24.357 102.436 26.1207C102.16 27.8845 102.422 29.0044 103.223 29.4803Z" fill="white"/>
<path d="M143.901 30.5722C143.874 30.6842 143.777 30.7682 143.612 30.8241L138.478 31.706C137.374 31.706 136.463 31.4821 135.745 31.0341C135.055 30.5582 134.42 29.8723 133.841 28.9764L131.025 24.6929C130.639 24.049 130.197 23.5311 129.7 23.1391C129.231 22.7192 128.665 22.5092 128.003 22.5092C127.782 22.5092 127.616 22.5232 127.506 22.5512V28.5564C127.534 28.9204 127.603 29.2423 127.713 29.5223C127.796 29.7743 127.934 30.0122 128.127 30.2362C128.348 30.4322 128.651 30.5302 129.038 30.5302H129.369C129.617 30.5302 129.686 30.6282 129.576 30.8241L129.41 31.1181C129.328 31.2581 129.217 31.3281 129.079 31.3281H119.432C119.267 31.3281 119.143 31.2441 119.06 31.0761L118.977 30.8661C118.894 30.6702 118.977 30.5722 119.225 30.5722H119.515C119.874 30.5722 120.136 30.4882 120.302 30.3202C120.495 30.1522 120.633 29.9563 120.716 29.7323C120.826 29.4803 120.881 29.2003 120.881 28.8924V4.99738C120.881 4.68941 120.812 4.45144 120.674 4.28346C120.536 4.11549 120.371 3.9895 120.178 3.90551C120.012 3.82152 119.819 3.76553 119.598 3.73753C119.405 3.70954 119.225 3.69554 119.06 3.69554C118.866 3.75153 118.77 3.65354 118.77 3.40158C118.715 3.2336 118.797 3.12161 119.018 3.06562C119.57 2.92563 120.26 2.75766 121.088 2.56168C121.944 2.33771 122.827 2.09974 123.738 1.84777C124.649 1.56781 125.519 1.27384 126.347 0.965879C127.202 0.657918 127.906 0.349957 128.458 0.0419942C128.486 0.0139981 128.541 0 128.624 0C128.762 0 128.845 0.041995 128.872 0.125985C128.955 0.265967 128.941 0.391952 128.831 0.503938C128.638 0.699913 128.362 1.02187 128.003 1.46982C127.672 1.88976 127.506 2.51969 127.506 3.35958V12.5564C127.727 12.3885 128.044 12.1505 128.458 11.8425C128.9 11.5066 129.452 11.1846 130.114 10.8766C130.804 10.5687 131.591 10.3027 132.474 10.0787C133.385 9.85477 134.406 9.74278 135.538 9.74278C136.918 9.74278 138.008 9.92476 138.809 10.2887C139.637 10.6527 140.272 11.0866 140.713 11.5906C141.155 12.0945 141.431 12.6124 141.542 13.1444C141.68 13.6483 141.749 14.0542 141.749 14.3622C141.749 15.3981 141.542 16.308 141.127 17.0919C140.741 17.8758 140.217 18.5617 139.554 19.1496C138.892 19.7095 138.133 20.1995 137.277 20.6194C136.449 21.0114 135.593 21.3333 134.71 21.5853C135.345 21.6973 135.883 21.9353 136.325 22.2992C136.794 22.6352 137.249 23.0831 137.691 23.643C138.133 24.203 138.588 24.8469 139.057 25.5748C139.527 26.3027 140.065 27.1146 140.672 28.0105C140.92 28.3745 141.196 28.6964 141.5 28.9764C141.776 29.2283 142.08 29.4663 142.411 29.6903C142.742 29.8863 143.101 29.9843 143.487 29.9843H143.819C144.067 29.9843 144.136 30.0822 144.026 30.2782L143.901 30.5722ZM133.675 15.4541C133.675 15.2301 133.647 14.9221 133.592 14.5302C133.537 14.1102 133.399 13.7043 133.178 13.3123C132.985 12.9204 132.709 12.5844 132.35 12.3045C131.991 12.0245 131.494 11.8845 130.86 11.8845C130.087 11.8845 129.438 12.0525 128.914 12.3885C128.417 12.7244 128.017 13.0744 127.713 13.4383C127.685 13.4663 127.644 13.5363 127.589 13.6483L127.547 13.8163C127.52 13.8443 127.506 13.9143 127.506 14.0262V21.2073C127.506 21.5993 127.727 21.7953 128.168 21.7953C128.665 21.7393 129.231 21.6133 129.866 21.4173C130.501 21.1933 131.094 20.8434 131.646 20.3675C132.226 19.8915 132.709 19.2616 133.095 18.4777C133.482 17.6658 133.675 16.6579 133.675 15.4541Z" fill="white"/>
<path d="M153.431 18.1837C155.032 18.1557 156.205 17.7918 156.951 17.0919C157.696 16.392 158.068 15.5101 158.068 14.4462C158.068 13.3823 157.751 12.4864 157.116 11.7585C156.481 11.0306 155.626 10.6667 154.549 10.6667C153.638 10.6667 152.893 10.9746 152.313 11.5906C151.734 12.2065 151.444 13.0604 151.444 14.1522C151.444 15.1041 151.196 15.832 150.699 16.336C150.202 16.8119 149.581 17.0499 148.836 17.0499C148.422 17.0499 147.98 16.9659 147.511 16.7979C147.069 16.6299 146.655 16.4059 146.269 16.126C145.91 15.818 145.606 15.4681 145.358 15.0761C145.137 14.6562 145.026 14.2222 145.026 13.7743C145.026 13.0744 145.233 12.4724 145.648 11.9685C146.062 11.4366 146.614 11.0026 147.304 10.6667C147.994 10.3027 148.767 10.0367 149.622 9.86877C150.478 9.67279 151.334 9.5748 152.189 9.5748C153.542 9.5748 154.811 9.74278 155.998 10.0787C157.213 10.3867 158.275 10.8626 159.186 11.5066C160.097 12.1225 160.815 12.8924 161.339 13.8163C161.891 14.7122 162.167 15.748 162.167 16.9239V28.5564C162.195 28.9204 162.264 29.2423 162.374 29.5223C162.457 29.7743 162.595 30.0122 162.788 30.2362C163.009 30.4322 163.313 30.5302 163.699 30.5302H164.113C164.306 30.5302 164.417 30.6142 164.444 30.7822C164.444 31.0061 164.251 31.1881 163.865 31.3281C163.478 31.4681 163.037 31.5801 162.54 31.664C162.071 31.748 161.601 31.804 161.132 31.832C160.663 31.86 160.346 31.874 160.18 31.874C159.241 31.846 158.358 31.706 157.53 31.4541C156.73 31.2021 156.178 30.7402 155.874 30.0682C155.294 30.6562 154.591 31.1181 153.763 31.4541C152.934 31.818 151.858 32 150.533 32C149.567 32 148.615 31.832 147.676 31.4961C146.738 31.1881 145.896 30.7262 145.151 30.1102C144.405 29.4663 143.798 28.6964 143.329 27.8005C142.887 26.9046 142.666 25.8688 142.666 24.6929C142.666 23.3771 142.929 22.2852 143.453 21.4173C144.005 20.5494 144.654 19.8635 145.399 19.3596C146.172 18.8556 146.959 18.5057 147.759 18.3097C148.587 18.1137 149.263 18.0157 149.788 18.0157C150.423 18.0717 151.058 18.1137 151.692 18.1417C152.355 18.1697 152.934 18.1837 153.431 18.1837ZM152.355 30.8661C153.238 30.8661 153.97 30.2642 154.549 29.0604C155.156 27.8285 155.46 26.0087 155.46 23.601V19.7795C155.46 19.1916 155.143 18.8976 154.508 18.8976C154.259 18.8976 153.97 18.8976 153.638 18.8976C153.335 18.8976 153.003 18.9116 152.645 18.9396C152.286 18.9676 151.927 19.0656 151.568 19.2336C151.209 19.3736 150.892 19.6535 150.616 20.0735C150.34 20.4934 150.119 21.0534 149.953 21.7533C149.788 22.4532 149.705 23.3631 149.705 24.4829C149.705 26.6947 149.967 28.3185 150.492 29.3543C151.044 30.3622 151.665 30.8661 152.355 30.8661Z" fill="white"/>
</svg>
